<svg xmlns="http://www.w3.org/2000/svg" viewBox="0 0 1840 1300" font-family="&apos;Apple SD Gothic Neo&apos;,&apos;Malgun Gothic&apos;,&apos;Noto Sans KR&apos;,&apos;Noto Sans CJK KR&apos;,&apos;NanumGothic&apos;,Helvetica,Arial,sans-serif">
<rect x="0" y="0" width="1840" height="1300" fill="#FBFBF9"/>
<text x="40" y="52" font-size="30" font-weight="700" fill="#2C2C2A">SSAFY International ERP — 전체 ERD</text>
<text x="42" y="78" font-size="15" fill="#5F5E5A">기존 영업/마스터 11 + 증강 구매·공급 7 + 재무 3 = 엔티티 21개 · 관계 26</text>
<rect x="1150" y="40" width="16" height="16" rx="3" fill="#E1F5EE" stroke="#0F6E56"/>
<rect x="1150" y="40" width="16" height="5" rx="2" fill="#1D9E75"/>
<text x="1174" y="53" font-size="14" fill="#2C2C2A">영업/마스터 (ssafy_international)</text>
<rect x="1150" y="64" width="16" height="16" rx="3" fill="#FAECE7" stroke="#993C1D"/>
<rect x="1150" y="64" width="16" height="5" rx="2" fill="#D85A30"/>
<text x="1174" y="77" font-size="14" fill="#2C2C2A">구매·공급 (procurement)</text>
<rect x="1150" y="88" width="16" height="16" rx="3" fill="#EEEDFE" stroke="#3C3489"/>
<rect x="1150" y="88" width="16" height="5" rx="2" fill="#534AB7"/>
<text x="1174" y="101" font-size="14" fill="#2C2C2A">재무/회계 (finance)</text>
<text x="1150" y="128" font-size="13" fill="#5F5E5A">PK 기본키 · FK 외래키 · ─&lt; 1:N 관계</text>
<path d="M 270.0 166.5 L 292.0 166.5 L 515.0 166.5 L 515.0 160.0 L 738.0 160.0 L 760.0 160.0" fill="none" stroke="#1D9E75" stroke-width="1.4" opacity="0.85"/>
<line x1="276.0" y1="159.5" x2="276.0" y2="173.5" stroke="#1D9E75" stroke-width="1.4"/>
<line x1="749.0" y1="153.0" x2="760.0" y2="160.0" stroke="#1D9E75" stroke-width="1.4"/><line x1="749.0" y1="160.0" x2="760.0" y2="160.0" stroke="#1D9E75" stroke-width="1.4"/><line x1="749.0" y1="167.0" x2="760.0" y2="160.0" stroke="#1D9E75" stroke-width="1.4"/>
<path d="M 865.0 470.0 L 865.0 448.0 L 865.0 365.0 L 830.0 365.0 L 830.0 282.0 L 830.0 260.0" fill="none" stroke="#1D9E75" stroke-width="1.4" opacity="0.85"/>
<line x1="858.0" y1="464.0" x2="872.0" y2="464.0" stroke="#1D9E75" stroke-width="1.4"/>
<line x1="823.0" y1="271.0" x2="830.0" y2="260.0" stroke="#1D9E75" stroke-width="1.4"/><line x1="830.0" y1="271.0" x2="830.0" y2="260.0" stroke="#1D9E75" stroke-width="1.4"/><line x1="837.0" y1="271.0" x2="830.0" y2="260.0" stroke="#1D9E75" stroke-width="1.4"/>
<path d="M 760.0 210.0 L 738.0 210.0 L 690.0 210.0 L 690.0 445.0 L 642.0 445.0 L 620.0 445.0" fill="none" stroke="#1D9E75" stroke-width="1.4" opacity="0.85"/>
<line x1="754.0" y1="203.0" x2="754.0" y2="217.0" stroke="#1D9E75" stroke-width="1.4"/>
<line x1="631.0" y1="438.0" x2="620.0" y2="445.0" stroke="#1D9E75" stroke-width="1.4"/><line x1="631.0" y1="445.0" x2="620.0" y2="445.0" stroke="#1D9E75" stroke-width="1.4"/><line x1="631.0" y1="452.0" x2="620.0" y2="445.0" stroke="#1D9E75" stroke-width="1.4"/>
<path d="M 452.0 270.0 L 452.0 292.0 L 452.0 320.0 L 515.0 320.0 L 515.0 348.0 L 515.0 370.0" fill="none" stroke="#1D9E75" stroke-width="1.4" opacity="0.85"/>
<line x1="445.0" y1="276.0" x2="459.0" y2="276.0" stroke="#1D9E75" stroke-width="1.4"/>
<line x1="508.0" y1="359.0" x2="515.0" y2="370.0" stroke="#1D9E75" stroke-width="1.4"/><line x1="515.0" y1="359.0" x2="515.0" y2="370.0" stroke="#1D9E75" stroke-width="1.4"/><line x1="522.0" y1="359.0" x2="515.0" y2="370.0" stroke="#1D9E75" stroke-width="1.4"/>
<path d="M 270.0 406.0 L 292.0 406.0 L 340.0 406.0 L 340.0 195.0 L 388.0 195.0 L 410.0 195.0" fill="none" stroke="#1D9E75" stroke-width="1.4" opacity="0.85"/>
<line x1="276.0" y1="399.0" x2="276.0" y2="413.0" stroke="#1D9E75" stroke-width="1.4"/>
<line x1="399.0" y1="188.0" x2="410.0" y2="195.0" stroke="#1D9E75" stroke-width="1.4"/><line x1="399.0" y1="195.0" x2="410.0" y2="195.0" stroke="#1D9E75" stroke-width="1.4"/><line x1="399.0" y1="202.0" x2="410.0" y2="195.0" stroke="#1D9E75" stroke-width="1.4"/>
<path d="M 165.0 560.0 L 165.0 538.0 L 165.0 415.0 L 494.0 415.0 L 494.0 292.0 L 494.0 270.0" fill="none" stroke="#1D9E75" stroke-width="1.4" opacity="0.85"/>
<line x1="158.0" y1="554.0" x2="172.0" y2="554.0" stroke="#1D9E75" stroke-width="1.4"/>
<line x1="487.0" y1="281.0" x2="494.0" y2="270.0" stroke="#1D9E75" stroke-width="1.4"/><line x1="494.0" y1="281.0" x2="494.0" y2="270.0" stroke="#1D9E75" stroke-width="1.4"/><line x1="501.0" y1="281.0" x2="494.0" y2="270.0" stroke="#1D9E75" stroke-width="1.4"/>
<path d="M 165.0 770.0 L 165.0 748.0 L 165.0 520.0 L 536.0 520.0 L 536.0 292.0 L 536.0 270.0" fill="none" stroke="#1D9E75" stroke-width="1.4" opacity="0.85"/>
<line x1="158.0" y1="764.0" x2="172.0" y2="764.0" stroke="#1D9E75" stroke-width="1.4"/>
<line x1="529.0" y1="281.0" x2="536.0" y2="270.0" stroke="#1D9E75" stroke-width="1.4"/><line x1="536.0" y1="281.0" x2="536.0" y2="270.0" stroke="#1D9E75" stroke-width="1.4"/><line x1="543.0" y1="281.0" x2="536.0" y2="270.0" stroke="#1D9E75" stroke-width="1.4"/>
<path d="M 270.0 967.0 L 292.0 967.0 L 340.0 967.0 L 340.0 976.5 L 388.0 976.5 L 410.0 976.5" fill="none" stroke="#1D9E75" stroke-width="1.4" opacity="0.85"/>
<line x1="276.0" y1="960.0" x2="276.0" y2="974.0" stroke="#1D9E75" stroke-width="1.4"/>
<line x1="399.0" y1="969.5" x2="410.0" y2="976.5" stroke="#1D9E75" stroke-width="1.4"/><line x1="399.0" y1="976.5" x2="410.0" y2="976.5" stroke="#1D9E75" stroke-width="1.4"/><line x1="399.0" y1="983.5" x2="410.0" y2="976.5" stroke="#1D9E75" stroke-width="1.4"/>
<path d="M 270.0 582.4 L 292.0 582.4 L 340.0 582.4 L 340.0 706.5 L 388.0 706.5 L 410.0 706.5" fill="none" stroke="#1D9E75" stroke-width="1.4" opacity="0.85"/>
<line x1="276.0" y1="575.4" x2="276.0" y2="589.4" stroke="#1D9E75" stroke-width="1.4"/>
<line x1="399.0" y1="699.5" x2="410.0" y2="706.5" stroke="#1D9E75" stroke-width="1.4"/><line x1="399.0" y1="706.5" x2="410.0" y2="706.5" stroke="#1D9E75" stroke-width="1.4"/><line x1="399.0" y1="713.5" x2="410.0" y2="706.5" stroke="#1D9E75" stroke-width="1.4"/>
<path d="M 515.0 930.0 L 515.0 908.0 L 515.0 841.5 L 515.0 841.5 L 515.0 775.0 L 515.0 753.0" fill="none" stroke="#1D9E75" stroke-width="1.4" opacity="0.85"/>
<line x1="508.0" y1="924.0" x2="522.0" y2="924.0" stroke="#1D9E75" stroke-width="1.4"/>
<line x1="508.0" y1="764.0" x2="515.0" y2="753.0" stroke="#1D9E75" stroke-width="1.4"/><line x1="515.0" y1="764.0" x2="515.0" y2="753.0" stroke="#1D9E75" stroke-width="1.4"/><line x1="522.0" y1="764.0" x2="515.0" y2="753.0" stroke="#1D9E75" stroke-width="1.4"/>
<path d="M 270 599.2 h 26 v 40 h -26" fill="none" stroke="#1D9E75" stroke-width="1.4"/>
<line x1="281.0" y1="622.4" x2="270.0" y2="629.4" stroke="#1D9E75" stroke-width="1.4"/><line x1="281.0" y1="629.4" x2="270.0" y2="629.4" stroke="#1D9E75" stroke-width="1.4"/><line x1="281.0" y1="636.4" x2="270.0" y2="629.4" stroke="#1D9E75" stroke-width="1.4"/>
<line x1="276.0" y1="592.2" x2="276.0" y2="606.2" stroke="#1D9E75" stroke-width="1.4"/>
<path d="M 970.0 160.0 L 992.0 160.0 L 1055.0 160.0 L 1055.0 153.7 L 1118.0 153.7 L 1140.0 153.7" fill="none" stroke="#D85A30" stroke-width="1.4" opacity="0.85"/>
<line x1="976.0" y1="153.0" x2="976.0" y2="167.0" stroke="#D85A30" stroke-width="1.4"/>
<line x1="1129.0" y1="146.7" x2="1140.0" y2="153.7" stroke="#D85A30" stroke-width="1.4"/><line x1="1129.0" y1="153.7" x2="1140.0" y2="153.7" stroke="#D85A30" stroke-width="1.4"/><line x1="1129.0" y1="160.7" x2="1140.0" y2="153.7" stroke="#D85A30" stroke-width="1.4"/>
<path d="M 970.0 507.3 L 992.0 507.3 L 1055.0 507.3 L 1055.0 197.3 L 1118.0 197.3 L 1140.0 197.3" fill="none" stroke="#D85A30" stroke-width="1.4" opacity="0.85"/>
<line x1="976.0" y1="500.3" x2="976.0" y2="514.3" stroke="#D85A30" stroke-width="1.4"/>
<line x1="1129.0" y1="190.3" x2="1140.0" y2="197.3" stroke="#D85A30" stroke-width="1.4"/><line x1="1129.0" y1="197.3" x2="1140.0" y2="197.3" stroke="#D85A30" stroke-width="1.4"/><line x1="1129.0" y1="204.3" x2="1140.0" y2="197.3" stroke="#D85A30" stroke-width="1.4"/>
<path d="M 970.0 544.7 L 992.0 544.7 L 1055.0 544.7 L 1055.0 410.0 L 1118.0 410.0 L 1140.0 410.0" fill="none" stroke="#D85A30" stroke-width="1.4" opacity="0.85"/>
<line x1="976.0" y1="537.7" x2="976.0" y2="551.7" stroke="#D85A30" stroke-width="1.4"/>
<line x1="1129.0" y1="403.0" x2="1140.0" y2="410.0" stroke="#D85A30" stroke-width="1.4"/><line x1="1129.0" y1="410.0" x2="1140.0" y2="410.0" stroke="#D85A30" stroke-width="1.4"/><line x1="1129.0" y1="417.0" x2="1140.0" y2="410.0" stroke="#D85A30" stroke-width="1.4"/>
<path d="M 270.0 604.8 L 292.0 604.8 L 705.0 604.8 L 705.0 460.0 L 1118.0 460.0 L 1140.0 460.0" fill="none" stroke="#D85A30" stroke-width="1.4" opacity="0.85"/>
<line x1="276.0" y1="597.8" x2="276.0" y2="611.8" stroke="#D85A30" stroke-width="1.4"/>
<line x1="1129.0" y1="453.0" x2="1140.0" y2="460.0" stroke="#D85A30" stroke-width="1.4"/><line x1="1129.0" y1="460.0" x2="1140.0" y2="460.0" stroke="#D85A30" stroke-width="1.4"/><line x1="1129.0" y1="467.0" x2="1140.0" y2="460.0" stroke="#D85A30" stroke-width="1.4"/>
<path d="M 1210.0 510.0 L 1210.0 532.0 L 1210.0 575.0 L 1210.0 575.0 L 1210.0 618.0 L 1210.0 640.0" fill="none" stroke="#D85A30" stroke-width="1.4" opacity="0.85"/>
<line x1="1203.0" y1="516.0" x2="1217.0" y2="516.0" stroke="#D85A30" stroke-width="1.4"/>
<line x1="1203.0" y1="629.0" x2="1210.0" y2="640.0" stroke="#D85A30" stroke-width="1.4"/><line x1="1210.0" y1="629.0" x2="1210.0" y2="640.0" stroke="#D85A30" stroke-width="1.4"/><line x1="1217.0" y1="629.0" x2="1210.0" y2="640.0" stroke="#D85A30" stroke-width="1.4"/>
<path d="M 900.0 260.0 L 900.0 282.0 L 900.0 450.0 L 1280.0 450.0 L 1280.0 618.0 L 1280.0 640.0" fill="none" stroke="#D85A30" stroke-width="1.4" opacity="0.85"/>
<line x1="893.0" y1="266.0" x2="907.0" y2="266.0" stroke="#D85A30" stroke-width="1.4"/>
<line x1="1273.0" y1="629.0" x2="1280.0" y2="640.0" stroke="#D85A30" stroke-width="1.4"/><line x1="1280.0" y1="629.0" x2="1280.0" y2="640.0" stroke="#D85A30" stroke-width="1.4"/><line x1="1287.0" y1="629.0" x2="1280.0" y2="640.0" stroke="#D85A30" stroke-width="1.4"/>
<path d="M 1350.0 435.0 L 1372.0 435.0 L 1415.0 435.0 L 1415.0 683.7 L 1458.0 683.7 L 1480.0 683.7" fill="none" stroke="#D85A30" stroke-width="1.4" opacity="0.85"/>
<line x1="1356.0" y1="428.0" x2="1356.0" y2="442.0" stroke="#D85A30" stroke-width="1.4"/>
<line x1="1469.0" y1="676.7" x2="1480.0" y2="683.7" stroke="#D85A30" stroke-width="1.4"/><line x1="1469.0" y1="683.7" x2="1480.0" y2="683.7" stroke="#D85A30" stroke-width="1.4"/><line x1="1469.0" y1="690.7" x2="1480.0" y2="683.7" stroke="#D85A30" stroke-width="1.4"/>
<path d="M 970.0 210.0 L 992.0 210.0 L 1225.0 210.0 L 1225.0 727.3 L 1458.0 727.3 L 1480.0 727.3" fill="none" stroke="#D85A30" stroke-width="1.4" opacity="0.85"/>
<line x1="976.0" y1="203.0" x2="976.0" y2="217.0" stroke="#D85A30" stroke-width="1.4"/>
<line x1="1469.0" y1="720.3" x2="1480.0" y2="727.3" stroke="#D85A30" stroke-width="1.4"/><line x1="1469.0" y1="727.3" x2="1480.0" y2="727.3" stroke="#D85A30" stroke-width="1.4"/><line x1="1469.0" y1="734.3" x2="1480.0" y2="727.3" stroke="#D85A30" stroke-width="1.4"/>
<path d="M 830.0 582.0 L 830.0 604.0 L 830.0 741.0 L 1245.0 741.0 L 1245.0 878.0 L 1245.0 900.0" fill="none" stroke="#D85A30" stroke-width="1.4" opacity="0.85"/>
<line x1="823.0" y1="588.0" x2="837.0" y2="588.0" stroke="#D85A30" stroke-width="1.4"/>
<line x1="1238.0" y1="889.0" x2="1245.0" y2="900.0" stroke="#D85A30" stroke-width="1.4"/><line x1="1245.0" y1="889.0" x2="1245.0" y2="900.0" stroke="#D85A30" stroke-width="1.4"/><line x1="1252.0" y1="889.0" x2="1245.0" y2="900.0" stroke="#D85A30" stroke-width="1.4"/>
<path d="M 1585.0 1031.0 L 1585.0 1053.0 L 1585.0 1070.5 L 1585.0 1070.5 L 1585.0 1088.0 L 1585.0 1110.0" fill="none" stroke="#D85A30" stroke-width="1.4" opacity="0.85"/>
<line x1="1578.0" y1="1037.0" x2="1592.0" y2="1037.0" stroke="#D85A30" stroke-width="1.4"/>
<line x1="1578.0" y1="1099.0" x2="1585.0" y2="1110.0" stroke="#D85A30" stroke-width="1.4"/><line x1="1585.0" y1="1099.0" x2="1585.0" y2="1110.0" stroke="#D85A30" stroke-width="1.4"/><line x1="1592.0" y1="1099.0" x2="1585.0" y2="1110.0" stroke="#D85A30" stroke-width="1.4"/>
<path d="M 1350.0 965.5 L 1372.0 965.5 L 1415.0 965.5 L 1415.0 1175.5 L 1458.0 1175.5 L 1480.0 1175.5" fill="none" stroke="#D85A30" stroke-width="1.4" opacity="0.85"/>
<line x1="1356.0" y1="958.5" x2="1356.0" y2="972.5" stroke="#D85A30" stroke-width="1.4"/>
<line x1="1469.0" y1="1168.5" x2="1480.0" y2="1175.5" stroke="#D85A30" stroke-width="1.4"/><line x1="1469.0" y1="1175.5" x2="1480.0" y2="1175.5" stroke="#D85A30" stroke-width="1.4"/><line x1="1469.0" y1="1182.5" x2="1480.0" y2="1175.5" stroke="#D85A30" stroke-width="1.4"/>
<path d="M 578.0 270.0 L 578.0 292.0 L 578.0 700.0 L 480.0 700.0 L 480.0 1108.0 L 480.0 1130.0" fill="none" stroke="#7F77DD" stroke-width="1.4" opacity="0.85"/>
<line x1="571.0" y1="276.0" x2="585.0" y2="276.0" stroke="#7F77DD" stroke-width="1.4"/>
<line x1="473.0" y1="1119.0" x2="480.0" y2="1130.0" stroke="#7F77DD" stroke-width="1.4"/><line x1="480.0" y1="1119.0" x2="480.0" y2="1130.0" stroke="#7F77DD" stroke-width="1.4"/><line x1="487.0" y1="1119.0" x2="480.0" y2="1130.0" stroke="#7F77DD" stroke-width="1.4"/>
<path d="M 165.0 462.0 L 165.0 484.0 L 165.0 796.0 L 550.0 796.0 L 550.0 1108.0 L 550.0 1130.0" fill="none" stroke="#7F77DD" stroke-width="1.4" opacity="0.85"/>
<line x1="158.0" y1="468.0" x2="172.0" y2="468.0" stroke="#7F77DD" stroke-width="1.4"/>
<line x1="543.0" y1="1119.0" x2="550.0" y2="1130.0" stroke="#7F77DD" stroke-width="1.4"/><line x1="550.0" y1="1119.0" x2="550.0" y2="1130.0" stroke="#7F77DD" stroke-width="1.4"/><line x1="557.0" y1="1119.0" x2="550.0" y2="1130.0" stroke="#7F77DD" stroke-width="1.4"/>
<path d="M 1280.0 510.0 L 1280.0 532.0 L 1280.0 705.0 L 830.0 705.0 L 830.0 878.0 L 830.0 900.0" fill="none" stroke="#7F77DD" stroke-width="1.4" opacity="0.85"/>
<line x1="1273.0" y1="516.0" x2="1287.0" y2="516.0" stroke="#7F77DD" stroke-width="1.4"/>
<line x1="823.0" y1="889.0" x2="830.0" y2="900.0" stroke="#7F77DD" stroke-width="1.4"/><line x1="830.0" y1="889.0" x2="830.0" y2="900.0" stroke="#7F77DD" stroke-width="1.4"/><line x1="837.0" y1="889.0" x2="830.0" y2="900.0" stroke="#7F77DD" stroke-width="1.4"/>
<path d="M 900.0 582.0 L 900.0 604.0 L 900.0 741.0 L 900.0 741.0 L 900.0 878.0 L 900.0 900.0" fill="none" stroke="#7F77DD" stroke-width="1.4" opacity="0.85"/>
<line x1="893.0" y1="588.0" x2="907.0" y2="588.0" stroke="#7F77DD" stroke-width="1.4"/>
<line x1="893.0" y1="889.0" x2="900.0" y2="900.0" stroke="#7F77DD" stroke-width="1.4"/><line x1="900.0" y1="889.0" x2="900.0" y2="900.0" stroke="#7F77DD" stroke-width="1.4"/><line x1="907.0" y1="889.0" x2="900.0" y2="900.0" stroke="#7F77DD" stroke-width="1.4"/>
<rect x="60" y="120" width="210" height="93" rx="7" fill="#FFFFFF" stroke="#0F6E56" stroke-width="1.3"/>
<path d="M 60 150 V 127 Q 60 120 67 120 H 263 Q 270 120 270 127 V 150 Z" fill="#1D9E75"/>
<text x="72" y="140" font-size="14.5" font-weight="700" fill="#FFFFFF">category</text>
<text x="72" y="164" font-size="12.5" font-weight="700" fill="#2C2C2A">categoryid</text>
<text x="258" y="164" font-size="9.5" font-weight="700" fill="#0F6E56" text-anchor="end">PK</text>
<line x1="68" y1="169" x2="262" y2="169" stroke="#E5E4DE" stroke-width="1"/>
<text x="72" y="183" font-size="12.5" fill="#5F5E5A">categoryname</text>
<text x="72" y="202" font-size="12.5" fill="#5F5E5A">description</text>
<rect x="760" y="110" width="210" height="150" rx="7" fill="#FFFFFF" stroke="#0F6E56" stroke-width="1.3"/>
<path d="M 760 140 V 117 Q 760 110 767 110 H 963 Q 970 110 970 117 V 140 Z" fill="#1D9E75"/>
<text x="772" y="130" font-size="14.5" font-weight="700" fill="#FFFFFF">product</text>
<text x="772" y="154" font-size="12.5" font-weight="700" fill="#2C2C2A">productid</text>
<text x="958" y="154" font-size="9.5" font-weight="700" fill="#0F6E56" text-anchor="end">PK</text>
<line x1="768" y1="159" x2="962" y2="159" stroke="#E5E4DE" stroke-width="1"/>
<text x="772" y="173" font-size="12.5" fill="#5F5E5A">productname</text>
<text x="772" y="192" font-size="12.5" fill="#444441" font-style="italic">supplierid</text>
<text x="958" y="192" font-size="9.5" font-weight="700" fill="#1D9E75" text-anchor="end">FK</text>
<text x="772" y="211" font-size="12.5" fill="#444441" font-style="italic">categoryid</text>
<text x="958" y="211" font-size="9.5" font-weight="700" fill="#1D9E75" text-anchor="end">FK</text>
<text x="772" y="230" font-size="12.5" fill="#5F5E5A">unitprice</text>
<text x="772" y="249" font-size="12.5" fill="#5F5E5A">unitsinstock</text>
<rect x="760" y="470" width="210" height="112" rx="7" fill="#FFFFFF" stroke="#0F6E56" stroke-width="1.3"/>
<path d="M 760 500 V 477 Q 760 470 767 470 H 963 Q 970 470 970 477 V 500 Z" fill="#1D9E75"/>
<text x="772" y="490" font-size="14.5" font-weight="700" fill="#FFFFFF">supplier</text>
<text x="772" y="514" font-size="12.5" font-weight="700" fill="#2C2C2A">supplierid</text>
<text x="958" y="514" font-size="9.5" font-weight="700" fill="#0F6E56" text-anchor="end">PK</text>
<line x1="768" y1="519" x2="962" y2="519" stroke="#E5E4DE" stroke-width="1"/>
<text x="772" y="533" font-size="12.5" fill="#5F5E5A">companyname</text>
<text x="772" y="552" font-size="12.5" fill="#5F5E5A">city</text>
<text x="772" y="571" font-size="12.5" fill="#5F5E5A">country</text>
<rect x="410" y="120" width="210" height="150" rx="7" fill="#FFFFFF" stroke="#0F6E56" stroke-width="1.3"/>
<path d="M 410 150 V 127 Q 410 120 417 120 H 613 Q 620 120 620 127 V 150 Z" fill="#1D9E75"/>
<text x="422" y="140" font-size="14.5" font-weight="700" fill="#FFFFFF">order</text>
<text x="422" y="164" font-size="12.5" font-weight="700" fill="#2C2C2A">orderid</text>
<text x="608" y="164" font-size="9.5" font-weight="700" fill="#0F6E56" text-anchor="end">PK</text>
<line x1="418" y1="169" x2="612" y2="169" stroke="#E5E4DE" stroke-width="1"/>
<text x="422" y="183" font-size="12.5" fill="#444441" font-style="italic">customerid</text>
<text x="608" y="183" font-size="9.5" font-weight="700" fill="#1D9E75" text-anchor="end">FK</text>
<text x="422" y="202" font-size="12.5" fill="#444441" font-style="italic">employeeid</text>
<text x="608" y="202" font-size="9.5" font-weight="700" fill="#1D9E75" text-anchor="end">FK</text>
<text x="422" y="221" font-size="12.5" fill="#444441" font-style="italic">shipvia</text>
<text x="608" y="221" font-size="9.5" font-weight="700" fill="#1D9E75" text-anchor="end">FK</text>
<text x="422" y="240" font-size="12.5" fill="#5F5E5A">orderdate</text>
<text x="422" y="259" font-size="12.5" fill="#5F5E5A">freight</text>
<rect x="410" y="370" width="210" height="150" rx="7" fill="#FFFFFF" stroke="#0F6E56" stroke-width="1.3"/>
<path d="M 410 400 V 377 Q 410 370 417 370 H 613 Q 620 370 620 377 V 400 Z" fill="#1D9E75"/>
<text x="422" y="390" font-size="14.5" font-weight="700" fill="#FFFFFF">orderdetail</text>
<text x="422" y="414" font-size="12.5" font-weight="700" fill="#2C2C2A">id</text>
<text x="608" y="414" font-size="9.5" font-weight="700" fill="#0F6E56" text-anchor="end">PK</text>
<line x1="418" y1="419" x2="612" y2="419" stroke="#E5E4DE" stroke-width="1"/>
<text x="422" y="433" font-size="12.5" fill="#444441" font-style="italic">orderid</text>
<text x="608" y="433" font-size="9.5" font-weight="700" fill="#1D9E75" text-anchor="end">FK</text>
<text x="422" y="452" font-size="12.5" fill="#444441" font-style="italic">productid</text>
<text x="608" y="452" font-size="9.5" font-weight="700" fill="#1D9E75" text-anchor="end">FK</text>
<text x="422" y="471" font-size="12.5" fill="#5F5E5A">unitprice</text>
<text x="422" y="490" font-size="12.5" fill="#5F5E5A">quantity</text>
<text x="422" y="509" font-size="12.5" fill="#5F5E5A">discount</text>
<rect x="60" y="350" width="210" height="112" rx="7" fill="#FFFFFF" stroke="#0F6E56" stroke-width="1.3"/>
<path d="M 60 380 V 357 Q 60 350 67 350 H 263 Q 270 350 270 357 V 380 Z" fill="#1D9E75"/>
<text x="72" y="370" font-size="14.5" font-weight="700" fill="#FFFFFF">customer</text>
<text x="72" y="394" font-size="12.5" font-weight="700" fill="#2C2C2A">customerid</text>
<text x="258" y="394" font-size="9.5" font-weight="700" fill="#0F6E56" text-anchor="end">PK</text>
<line x1="68" y1="399" x2="262" y2="399" stroke="#E5E4DE" stroke-width="1"/>
<text x="72" y="413" font-size="12.5" fill="#5F5E5A">companyname</text>
<text x="72" y="432" font-size="12.5" fill="#5F5E5A">city</text>
<text x="72" y="451" font-size="12.5" fill="#5F5E5A">country</text>
<rect x="60" y="560" width="210" height="112" rx="7" fill="#FFFFFF" stroke="#0F6E56" stroke-width="1.3"/>
<path d="M 60 590 V 567 Q 60 560 67 560 H 263 Q 270 560 270 567 V 590 Z" fill="#1D9E75"/>
<text x="72" y="580" font-size="14.5" font-weight="700" fill="#FFFFFF">employee</text>
<text x="72" y="604" font-size="12.5" font-weight="700" fill="#2C2C2A">employeeid</text>
<text x="258" y="604" font-size="9.5" font-weight="700" fill="#0F6E56" text-anchor="end">PK</text>
<line x1="68" y1="609" x2="262" y2="609" stroke="#E5E4DE" stroke-width="1"/>
<text x="72" y="623" font-size="12.5" fill="#5F5E5A">firstname</text>
<text x="72" y="642" font-size="12.5" fill="#5F5E5A">title</text>
<text x="72" y="661" font-size="12.5" fill="#444441" font-style="italic">reportsto</text>
<text x="258" y="661" font-size="9.5" font-weight="700" fill="#1D9E75" text-anchor="end">FK</text>
<rect x="60" y="770" width="210" height="93" rx="7" fill="#FFFFFF" stroke="#0F6E56" stroke-width="1.3"/>
<path d="M 60 800 V 777 Q 60 770 67 770 H 263 Q 270 770 270 777 V 800 Z" fill="#1D9E75"/>
<text x="72" y="790" font-size="14.5" font-weight="700" fill="#FFFFFF">shipper</text>
<text x="72" y="814" font-size="12.5" font-weight="700" fill="#2C2C2A">shipperid</text>
<text x="258" y="814" font-size="9.5" font-weight="700" fill="#0F6E56" text-anchor="end">PK</text>
<line x1="68" y1="819" x2="262" y2="819" stroke="#E5E4DE" stroke-width="1"/>
<text x="72" y="833" font-size="12.5" fill="#5F5E5A">companyname</text>
<text x="72" y="852" font-size="12.5" fill="#5F5E5A">phone</text>
<rect x="60" y="930" width="210" height="74" rx="7" fill="#FFFFFF" stroke="#0F6E56" stroke-width="1.3"/>
<path d="M 60 960 V 937 Q 60 930 67 930 H 263 Q 270 930 270 937 V 960 Z" fill="#1D9E75"/>
<text x="72" y="950" font-size="14.5" font-weight="700" fill="#FFFFFF">region</text>
<text x="72" y="974" font-size="12.5" font-weight="700" fill="#2C2C2A">regionid</text>
<text x="258" y="974" font-size="9.5" font-weight="700" fill="#0F6E56" text-anchor="end">PK</text>
<line x1="68" y1="979" x2="262" y2="979" stroke="#E5E4DE" stroke-width="1"/>
<text x="72" y="993" font-size="12.5" fill="#5F5E5A">regiondescription</text>
<rect x="410" y="930" width="210" height="93" rx="7" fill="#FFFFFF" stroke="#0F6E56" stroke-width="1.3"/>
<path d="M 410 960 V 937 Q 410 930 417 930 H 613 Q 620 930 620 937 V 960 Z" fill="#1D9E75"/>
<text x="422" y="950" font-size="14.5" font-weight="700" fill="#FFFFFF">territory</text>
<text x="422" y="974" font-size="12.5" font-weight="700" fill="#2C2C2A">territoryid</text>
<text x="608" y="974" font-size="9.5" font-weight="700" fill="#0F6E56" text-anchor="end">PK</text>
<line x1="418" y1="979" x2="612" y2="979" stroke="#E5E4DE" stroke-width="1"/>
<text x="422" y="993" font-size="12.5" fill="#5F5E5A">territorydescription</text>
<text x="422" y="1012" font-size="12.5" fill="#444441" font-style="italic">regionid</text>
<text x="608" y="1012" font-size="9.5" font-weight="700" fill="#1D9E75" text-anchor="end">FK</text>
<rect x="410" y="660" width="210" height="93" rx="7" fill="#FFFFFF" stroke="#0F6E56" stroke-width="1.3"/>
<path d="M 410 690 V 667 Q 410 660 417 660 H 613 Q 620 660 620 667 V 690 Z" fill="#1D9E75"/>
<text x="422" y="680" font-size="14.5" font-weight="700" fill="#FFFFFF">employeeterritory</text>
<text x="422" y="704" font-size="12.5" font-weight="700" fill="#2C2C2A">id</text>
<text x="608" y="704" font-size="9.5" font-weight="700" fill="#0F6E56" text-anchor="end">PK</text>
<line x1="418" y1="709" x2="612" y2="709" stroke="#E5E4DE" stroke-width="1"/>
<text x="422" y="723" font-size="12.5" fill="#444441" font-style="italic">employeeid</text>
<text x="608" y="723" font-size="9.5" font-weight="700" fill="#1D9E75" text-anchor="end">FK</text>
<text x="422" y="742" font-size="12.5" fill="#444441" font-style="italic">territoryid</text>
<text x="608" y="742" font-size="9.5" font-weight="700" fill="#1D9E75" text-anchor="end">FK</text>
<rect x="1140" y="110" width="210" height="131" rx="7" fill="#FFFFFF" stroke="#993C1D" stroke-width="1.3"/>
<path d="M 1140 140 V 117 Q 1140 110 1147 110 H 1343 Q 1350 110 1350 117 V 140 Z" fill="#D85A30"/>
<text x="1152" y="130" font-size="14.5" font-weight="700" fill="#FFFFFF">productcost</text>
<text x="1152" y="154" font-size="12.5" font-weight="700" fill="#2C2C2A">productid</text>
<text x="1338" y="154" font-size="9.5" font-weight="700" fill="#993C1D" text-anchor="end">PK</text>
<line x1="1148" y1="159" x2="1342" y2="159" stroke="#E5E4DE" stroke-width="1"/>
<text x="1152" y="173" font-size="12.5" fill="#444441" font-style="italic">productid</text>
<text x="1338" y="173" font-size="9.5" font-weight="700" fill="#D85A30" text-anchor="end">FK</text>
<text x="1152" y="192" font-size="12.5" fill="#5F5E5A">unitcost</text>
<text x="1152" y="211" font-size="12.5" fill="#5F5E5A">leadtimedays</text>
<text x="1152" y="230" font-size="12.5" fill="#444441" font-style="italic">preferredsupplierid</text>
<text x="1338" y="230" font-size="9.5" font-weight="700" fill="#D85A30" text-anchor="end">FK</text>
<rect x="1140" y="360" width="210" height="150" rx="7" fill="#FFFFFF" stroke="#993C1D" stroke-width="1.3"/>
<path d="M 1140 390 V 367 Q 1140 360 1147 360 H 1343 Q 1350 360 1350 367 V 390 Z" fill="#D85A30"/>
<text x="1152" y="380" font-size="14.5" font-weight="700" fill="#FFFFFF">purchaseorder</text>
<text x="1152" y="404" font-size="12.5" font-weight="700" fill="#2C2C2A">poid</text>
<text x="1338" y="404" font-size="9.5" font-weight="700" fill="#993C1D" text-anchor="end">PK</text>
<line x1="1148" y1="409" x2="1342" y2="409" stroke="#E5E4DE" stroke-width="1"/>
<text x="1152" y="423" font-size="12.5" fill="#444441" font-style="italic">supplierid</text>
<text x="1338" y="423" font-size="9.5" font-weight="700" fill="#D85A30" text-anchor="end">FK</text>
<text x="1152" y="442" font-size="12.5" fill="#444441" font-style="italic">employeeid</text>
<text x="1338" y="442" font-size="9.5" font-weight="700" fill="#D85A30" text-anchor="end">FK</text>
<text x="1152" y="461" font-size="12.5" fill="#5F5E5A">orderdate</text>
<text x="1152" y="480" font-size="12.5" fill="#5F5E5A">status</text>
<text x="1152" y="499" font-size="12.5" fill="#5F5E5A">totalamount</text>
<rect x="1140" y="640" width="210" height="131" rx="7" fill="#FFFFFF" stroke="#993C1D" stroke-width="1.3"/>
<path d="M 1140 670 V 647 Q 1140 640 1147 640 H 1343 Q 1350 640 1350 647 V 670 Z" fill="#D85A30"/>
<text x="1152" y="660" font-size="14.5" font-weight="700" fill="#FFFFFF">purchaseorderdetail</text>
<text x="1152" y="684" font-size="12.5" font-weight="700" fill="#2C2C2A">id</text>
<text x="1338" y="684" font-size="9.5" font-weight="700" fill="#993C1D" text-anchor="end">PK</text>
<line x1="1148" y1="689" x2="1342" y2="689" stroke="#E5E4DE" stroke-width="1"/>
<text x="1152" y="703" font-size="12.5" fill="#444441" font-style="italic">purchaseorderid</text>
<text x="1338" y="703" font-size="9.5" font-weight="700" fill="#D85A30" text-anchor="end">FK</text>
<text x="1152" y="722" font-size="12.5" fill="#444441" font-style="italic">productid</text>
<text x="1338" y="722" font-size="9.5" font-weight="700" fill="#D85A30" text-anchor="end">FK</text>
<text x="1152" y="741" font-size="12.5" fill="#5F5E5A">quantity</text>
<text x="1152" y="760" font-size="12.5" fill="#5F5E5A">unitcost</text>
<rect x="1480" y="640" width="210" height="131" rx="7" fill="#FFFFFF" stroke="#993C1D" stroke-width="1.3"/>
<path d="M 1480 670 V 647 Q 1480 640 1487 640 H 1683 Q 1690 640 1690 647 V 670 Z" fill="#D85A30"/>
<text x="1492" y="660" font-size="14.5" font-weight="700" fill="#FFFFFF">goodsreceipt</text>
<text x="1492" y="684" font-size="12.5" font-weight="700" fill="#2C2C2A">id</text>
<text x="1678" y="684" font-size="9.5" font-weight="700" fill="#993C1D" text-anchor="end">PK</text>
<line x1="1488" y1="689" x2="1682" y2="689" stroke="#E5E4DE" stroke-width="1"/>
<text x="1492" y="703" font-size="12.5" fill="#444441" font-style="italic">purchaseorderid</text>
<text x="1678" y="703" font-size="9.5" font-weight="700" fill="#D85A30" text-anchor="end">FK</text>
<text x="1492" y="722" font-size="12.5" fill="#444441" font-style="italic">productid</text>
<text x="1678" y="722" font-size="9.5" font-weight="700" fill="#D85A30" text-anchor="end">FK</text>
<text x="1492" y="741" font-size="12.5" fill="#5F5E5A">quantityreceived</text>
<text x="1492" y="760" font-size="12.5" fill="#5F5E5A">qcstatus</text>
<rect x="1140" y="900" width="210" height="131" rx="7" fill="#FFFFFF" stroke="#993C1D" stroke-width="1.3"/>
<path d="M 1140 930 V 907 Q 1140 900 1147 900 H 1343 Q 1350 900 1350 907 V 930 Z" fill="#D85A30"/>
<text x="1152" y="920" font-size="14.5" font-weight="700" fill="#FFFFFF">material</text>
<text x="1152" y="944" font-size="12.5" font-weight="700" fill="#2C2C2A">materialid</text>
<text x="1338" y="944" font-size="9.5" font-weight="700" fill="#993C1D" text-anchor="end">PK</text>
<line x1="1148" y1="949" x2="1342" y2="949" stroke="#E5E4DE" stroke-width="1"/>
<text x="1152" y="963" font-size="12.5" fill="#5F5E5A">materialname</text>
<text x="1152" y="982" font-size="12.5" fill="#5F5E5A">materialtype</text>
<text x="1152" y="1001" font-size="12.5" fill="#5F5E5A">unitcost</text>
<text x="1152" y="1020" font-size="12.5" fill="#444441" font-style="italic">supplierid</text>
<text x="1338" y="1020" font-size="9.5" font-weight="700" fill="#D85A30" text-anchor="end">FK</text>
<rect x="1480" y="900" width="210" height="131" rx="7" fill="#FFFFFF" stroke="#993C1D" stroke-width="1.3"/>
<path d="M 1480 930 V 907 Q 1480 900 1487 900 H 1683 Q 1690 900 1690 907 V 930 Z" fill="#D85A30"/>
<text x="1492" y="920" font-size="14.5" font-weight="700" fill="#FFFFFF">bom</text>
<text x="1492" y="944" font-size="12.5" font-weight="700" fill="#2C2C2A">bomid</text>
<text x="1678" y="944" font-size="9.5" font-weight="700" fill="#993C1D" text-anchor="end">PK</text>
<line x1="1488" y1="949" x2="1682" y2="949" stroke="#E5E4DE" stroke-width="1"/>
<text x="1492" y="963" font-size="12.5" fill="#5F5E5A">bomcode</text>
<text x="1492" y="982" font-size="12.5" fill="#5F5E5A">productname</text>
<text x="1492" y="1001" font-size="12.5" fill="#5F5E5A">status</text>
<text x="1492" y="1020" font-size="12.5" fill="#5F5E5A">batchcost</text>
<rect x="1480" y="1110" width="210" height="131" rx="7" fill="#FFFFFF" stroke="#993C1D" stroke-width="1.3"/>
<path d="M 1480 1140 V 1117 Q 1480 1110 1487 1110 H 1683 Q 1690 1110 1690 1117 V 1140 Z" fill="#D85A30"/>
<text x="1492" y="1130" font-size="14.5" font-weight="700" fill="#FFFFFF">bomcomponent</text>
<text x="1492" y="1154" font-size="12.5" font-weight="700" fill="#2C2C2A">id</text>
<text x="1678" y="1154" font-size="9.5" font-weight="700" fill="#993C1D" text-anchor="end">PK</text>
<line x1="1488" y1="1159" x2="1682" y2="1159" stroke="#E5E4DE" stroke-width="1"/>
<text x="1492" y="1173" font-size="12.5" fill="#444441" font-style="italic">bomid</text>
<text x="1678" y="1173" font-size="9.5" font-weight="700" fill="#D85A30" text-anchor="end">FK</text>
<text x="1492" y="1192" font-size="12.5" fill="#444441" font-style="italic">materialid</text>
<text x="1678" y="1192" font-size="9.5" font-weight="700" fill="#D85A30" text-anchor="end">FK</text>
<text x="1492" y="1211" font-size="12.5" fill="#5F5E5A">quantity</text>
<text x="1492" y="1230" font-size="12.5" fill="#5F5E5A">linecost</text>
<rect x="410" y="1130" width="210" height="131" rx="7" fill="#FFFFFF" stroke="#3C3489" stroke-width="1.3"/>
<path d="M 410 1160 V 1137 Q 410 1130 417 1130 H 613 Q 620 1130 620 1137 V 1160 Z" fill="#534AB7"/>
<text x="422" y="1150" font-size="14.5" font-weight="700" fill="#FFFFFF">accountsreceivable</text>
<text x="422" y="1174" font-size="12.5" font-weight="700" fill="#2C2C2A">id</text>
<text x="608" y="1174" font-size="9.5" font-weight="700" fill="#3C3489" text-anchor="end">PK</text>
<line x1="418" y1="1179" x2="612" y2="1179" stroke="#E5E4DE" stroke-width="1"/>
<text x="422" y="1193" font-size="12.5" fill="#444441" font-style="italic">orderid</text>
<text x="608" y="1193" font-size="9.5" font-weight="700" fill="#7F77DD" text-anchor="end">FK</text>
<text x="422" y="1212" font-size="12.5" fill="#444441" font-style="italic">customerid</text>
<text x="608" y="1212" font-size="9.5" font-weight="700" fill="#7F77DD" text-anchor="end">FK</text>
<text x="422" y="1231" font-size="12.5" fill="#5F5E5A">amount</text>
<text x="422" y="1250" font-size="12.5" fill="#5F5E5A">status</text>
<rect x="760" y="900" width="210" height="131" rx="7" fill="#FFFFFF" stroke="#3C3489" stroke-width="1.3"/>
<path d="M 760 930 V 907 Q 760 900 767 900 H 963 Q 970 900 970 907 V 930 Z" fill="#534AB7"/>
<text x="772" y="920" font-size="14.5" font-weight="700" fill="#FFFFFF">accountspayable</text>
<text x="772" y="944" font-size="12.5" font-weight="700" fill="#2C2C2A">id</text>
<text x="958" y="944" font-size="9.5" font-weight="700" fill="#3C3489" text-anchor="end">PK</text>
<line x1="768" y1="949" x2="962" y2="949" stroke="#E5E4DE" stroke-width="1"/>
<text x="772" y="963" font-size="12.5" fill="#444441" font-style="italic">purchaseorderid</text>
<text x="958" y="963" font-size="9.5" font-weight="700" fill="#7F77DD" text-anchor="end">FK</text>
<text x="772" y="982" font-size="12.5" fill="#444441" font-style="italic">supplierid</text>
<text x="958" y="982" font-size="9.5" font-weight="700" fill="#7F77DD" text-anchor="end">FK</text>
<text x="772" y="1001" font-size="12.5" fill="#5F5E5A">amount</text>
<text x="772" y="1020" font-size="12.5" fill="#5F5E5A">status</text>
<rect x="760" y="1130" width="210" height="131" rx="7" fill="#FFFFFF" stroke="#3C3489" stroke-width="1.3"/>
<path d="M 760 1160 V 1137 Q 760 1130 767 1130 H 963 Q 970 1130 970 1137 V 1160 Z" fill="#534AB7"/>
<text x="772" y="1150" font-size="14.5" font-weight="700" fill="#FFFFFF">expense</text>
<text x="772" y="1174" font-size="12.5" font-weight="700" fill="#2C2C2A">id</text>
<text x="958" y="1174" font-size="9.5" font-weight="700" fill="#3C3489" text-anchor="end">PK</text>
<line x1="768" y1="1179" x2="962" y2="1179" stroke="#E5E4DE" stroke-width="1"/>
<text x="772" y="1193" font-size="12.5" fill="#5F5E5A">period</text>
<text x="772" y="1212" font-size="12.5" fill="#5F5E5A">category</text>
<text x="772" y="1231" font-size="12.5" fill="#5F5E5A">amount</text>
<text x="772" y="1250" font-size="12.5" fill="#5F5E5A">costcenter</text>
</svg>